# Blender v2.80 (sub 41) OBJ File: 'cachoeira90.blend'
# www.blender.org
mtllib cachoeira90.mtl
o Cube
v 2.500000 5.000000 -1.000000
v 2.500000 -5.611525 -1.000000
v 2.500000 5.320055 2.132644
v 2.590142 5.274191 2.465394
v -2.500000 5.000000 -1.000000
v -2.500000 -5.611525 -1.000000
v -2.500000 5.320055 2.132644
v -2.590142 5.274191 2.465394
v 1.928540 -6.469157 -1.000000
v -1.928540 -6.469157 -1.000000
v 1.928540 4.659238 2.132644
v -1.928540 4.659238 2.132644
v -1.998077 4.851708 2.613335
v 1.998077 4.851708 2.613335
v -1.928540 4.453476 -1.000000
v 1.928540 4.453476 -1.000000
v 5.684219 -5.000000 -10.024458
v 5.684219 6.108935 11.156057
v -5.684219 -5.000000 -10.024458
v -5.684219 6.108935 11.156057
v 4.384897 -5.710881 -10.051360
v -4.384897 -5.710881 -10.051360
v -4.384897 5.359418 11.156057
v 4.384897 5.359418 11.156057
v -5.684219 -5.000000 -4.428873
v -3.709995 -5.329291 -4.429262
v 5.684219 -5.000000 -4.428870
v -2.861948 -6.469157 -4.456818
v 3.709994 -5.329291 -4.429260
v 2.861948 -6.469157 -4.456817
v 2.278582 4.851708 3.357993
v -2.934383 5.359417 3.363594
v -2.263629 4.851708 3.363594
v 5.684219 -5.000000 3.363594
v 2.934383 5.359417 3.363594
v -5.684219 -5.000000 3.363595
vt 0.375000 0.500000
vt 0.375000 0.591981
vt 0.375000 0.500000
vt 0.625000 1.000000
vt 0.625000 0.908019
vt 0.625000 0.816037
vt 0.625000 0.750000
vt 0.541667 0.750000
vt 0.541667 0.750000
vt 0.625000 0.500000
vt 0.625000 0.583333
vt 0.625000 0.583333
vt 0.375000 0.750000
vt 0.625000 0.500000
vt 0.625000 0.750000
vt 0.125000 0.500000
vt 0.375000 0.750000
vt 0.125000 0.750000
vt 0.375000 0.750000
vt 0.375000 0.683963
vt 0.625000 0.750000
vt 0.375000 0.500000
vt 0.625000 1.000000
vt 0.625000 1.000000
vt 0.625000 0.750000
vt 0.625000 0.500000
vt 0.625000 0.416667
vt 0.375000 0.416667
vt 0.875000 0.666667
vt 0.625000 0.666667
vt 0.625000 0.583333
vt 0.875000 0.583333
vt 0.458333 0.250000
vt 0.375000 0.250000
vt 0.375000 0.000000
vt 0.458333 0.000000
vt 0.375000 1.000000
vt 0.458333 1.000000
vt 0.458333 0.750000
vt 0.625000 0.500000
vt 0.875000 0.500000
vt 0.541667 1.000000
vt 0.541667 0.750000
vt 0.375000 0.333333
vt 0.625000 0.333333
vt 0.458333 1.000000
vt 0.541667 1.000000
vt 0.375000 0.250000
vt 0.625000 0.250000
vt 0.375000 0.500000
vt 0.375000 0.416667
vt 0.541667 1.000000
vt 0.875000 0.750000
vt 0.625000 0.666667
vt 0.458333 1.000000
vt 0.625000 0.666667
vt 0.625000 0.000000
vt 0.625000 0.250000
vt 0.541667 0.250000
vt 0.541667 0.000000
vt 0.375000 0.416667
vn -0.8990 0.2386 -0.3672
vn 0.9575 0.2884 0.0000
vn -0.7933 0.5935 -0.1355
vn 0.7933 0.5935 -0.1355
vn -1.0000 0.0000 0.0000
vn 0.9652 0.0721 -0.2515
vn 0.1645 0.9861 0.0231
vn 0.7347 0.2113 -0.6446
vn -0.1645 0.9861 0.0231
vn -0.7347 0.2113 -0.6446
vn -0.9077 0.2409 -0.3435
vn 0.9077 0.2409 -0.3435
vn -0.9575 0.2884 0.0000
vn 0.8990 0.2386 -0.3672
vn -0.3021 0.9519 -0.0506
vn 0.3021 0.9519 -0.0506
vn -0.9652 0.0721 -0.2515
vn 0.6813 0.7320 0.0018
vn 0.0000 0.0000 -1.0000
vn -0.7250 0.6863 -0.0576
vn 0.4167 0.2788 -0.8652
vn 0.0000 0.3041 -0.9527
vn 0.0000 0.9283 -0.3717
vn -0.7930 0.5666 -0.2236
vn 0.0000 1.0000 0.0000
vn -0.6813 0.7320 0.0018
vn 1.0000 0.0000 0.0000
vn 0.7930 0.5666 -0.2236
vn 0.5715 0.8028 0.1699
vn -0.5383 0.8367 0.1002
vn -0.0000 0.9979 -0.0650
vn -0.0000 0.9909 0.1343
vn 0.7250 0.6863 -0.0576
vn 0.5353 0.8388 0.0996
vn -0.4167 0.2788 -0.8652
vn -0.5751 0.7986 0.1773
vn 0.0000 0.9978 -0.0655
usemtl Material
s off
f 8/1/1 36/2/1 32/3/1
f 4/4/2 34/5/2 27/6/2
f 29/7/3 21/8/3 30/9/3
f 26/10/4 28/11/4 22/12/4
f 6/13/5 7/14/5 5/15/5
f 2/16/6 3/17/6 4/18/6
f 26/19/7 25/20/7 6/13/7
f 6/13/8 25/20/8 8/1/8
f 29/7/9 2/21/9 27/6/9
f 2/21/10 4/4/10 27/6/10
f 32/3/11 36/2/11 20/22/11
f 34/5/12 35/23/12 18/24/12
f 8/1/13 25/20/13 36/2/13
f 4/4/14 35/23/14 34/5/14
f 29/7/15 27/6/15 17/25/15 21/8/15
f 26/19/16 22/12/16 19/26/16 25/20/16
f 6/13/17 8/1/17 7/14/17
f 12/27/18 7/14/18 8/1/18 13/28/18
f 16/29/19 9/30/19 10/31/19 15/32/19
f 11/33/20 3/34/20 1/35/20 16/36/20
f 6/13/21 8/37/21 13/38/21 10/39/21
f 6/40/19 5/41/19 15/32/19 10/31/19
f 10/39/22 13/38/22 14/42/22 9/43/22
f 12/27/23 13/28/23 14/44/23 11/45/23
f 2/21/24 29/7/24 30/9/24 9/43/24
f 14/42/25 13/38/25 33/46/25 31/47/25
f 4/48/26 3/49/26 11/45/26 14/44/26
f 2/16/27 1/50/27 3/17/27
f 6/40/28 10/31/28 28/11/28 26/10/28
f 13/28/29 8/1/29 32/3/29 33/51/29
f 35/23/30 31/47/30 24/52/30 18/24/30
f 16/29/19 1/53/19 2/21/19 9/30/19
f 9/30/25 30/54/25 28/11/25 10/31/25
f 33/46/31 23/55/31 24/52/31 31/47/31
f 30/54/32 21/56/32 22/12/32 28/11/32
f 5/57/33 7/58/33 12/59/33 15/60/33
f 32/3/34 20/22/34 23/61/34 33/51/34
f 2/21/35 9/43/35 14/42/35 4/4/35
f 14/42/36 31/47/36 35/23/36 4/4/36
f 12/59/37 11/33/37 16/36/37 15/60/37
